<svg version="1.1" id="Layer_1" xmlns="http://www.w3.org/2000/svg" xmlns:xlink="http://www.w3.org/1999/xlink" x="0px" y="0px"
	 width="100%" viewBox="0 0 230 126" enable-background="new 0 0 230 126" xml:space="preserve">
<path fill="#000000" opacity="1.000000" stroke="none" 
	d="
M113.000000,1.000000 
	C152.265579,1.000000 191.531143,1.000000 230.898361,1.000000 
	C230.898361,42.999840 230.898361,84.999878 230.898361,127.000000 
	C226.262573,127.000000 221.603943,127.000000 216.340240,126.620499 
	C215.815430,123.102921 213.690231,123.002235 211.382004,122.988754 
	C205.267502,122.953041 199.153397,122.848083 193.009308,122.402985 
	C192.408325,120.511696 191.865173,118.976921 191.261139,117.466484 
	C188.810150,111.337509 186.340469,105.215996 183.877686,99.091728 
	C183.513840,98.186913 183.409714,96.831360 182.745163,96.448456 
	C177.363419,93.347580 178.125336,88.214622 177.970337,83.244720 
	C177.791855,77.522881 176.648911,72.053581 172.044617,67.633911 
	C171.307556,66.273834 170.649414,65.217499 170.459503,64.136139 
	C176.276886,64.029915 181.626038,63.948711 187.351959,63.751434 
	C189.348068,63.397461 190.984253,63.240467 192.583679,62.907066 
	C198.221115,61.731934 203.230301,59.560535 206.343079,53.829098 
	C210.336609,45.905773 204.978485,37.241020 194.853638,34.711590 
	C190.258224,33.629135 185.933807,32.816246 181.614807,31.975384 
	C178.090530,31.289240 174.572769,30.569660 170.965546,29.684601 
	C170.724319,29.275757 170.518524,29.111162 170.096710,28.828726 
	C169.710968,28.392296 169.437988,28.220596 168.887405,28.073267 
	C168.661942,28.014688 168.201508,27.943436 167.901550,27.690342 
	C164.082642,27.001307 160.563690,26.565367 156.843292,26.083527 
	C156.641830,26.037626 156.229965,26.003664 156.071228,25.826553 
	C155.697754,25.403690 155.433273,25.236784 154.895447,25.085720 
	C154.671814,25.022717 154.213974,24.943426 154.031265,24.665396 
	C152.966278,23.696339 152.084000,23.005312 151.201706,22.314285 
	C150.676620,22.603170 150.151535,22.892056 149.626450,23.180939 
	C150.397186,25.539797 151.167923,27.898653 152.105240,30.573874 
	C153.145996,32.210777 153.951050,34.613201 154.905685,34.674191 
	C160.592667,35.037521 166.314209,34.859962 172.471069,34.892876 
	C175.600784,34.886181 178.283569,34.850616 181.319916,34.987259 
	C186.694519,36.780476 191.961945,37.887257 196.677124,40.146549 
	C203.268402,43.304802 204.139069,45.874939 202.893829,52.942680 
	C202.923019,52.972252 202.992050,52.925968 202.713699,53.085674 
	C201.269073,54.154594 200.102798,55.063805 198.962555,55.991711 
	C198.988586,56.010406 199.013824,55.951485 198.778473,56.064354 
	C198.345520,56.457478 198.147919,56.737736 197.987305,57.012794 
	C198.024292,57.007591 198.013916,56.933609 197.650177,56.959232 
	C195.774353,57.643013 194.262238,58.301170 192.540924,58.981773 
	C192.331726,59.004219 191.921906,59.099857 191.601257,59.110565 
	C190.486633,59.387089 189.692673,59.652905 188.578217,59.927055 
	C187.832016,59.971710 187.406326,60.008034 186.575714,60.022778 
	C184.823074,60.055481 183.475372,60.109768 181.683624,60.122276 
	C179.163315,60.084751 177.087036,60.089008 174.595840,60.060257 
	C170.738556,59.000679 167.296204,57.974106 163.708389,56.719780 
	C163.062057,56.296276 162.561188,56.100525 162.040405,55.926170 
	C162.020477,55.947575 162.078400,55.955574 161.779083,55.717461 
	C155.963821,54.958073 150.454300,54.121292 144.930038,54.008816 
	C139.920425,53.906822 134.796783,55.840218 129.751892,52.533928 
	C123.030998,49.857655 116.606392,47.392906 109.949074,44.635017 
	C104.427689,40.372379 98.704109,41.881493 92.924377,42.907257 
	C92.838463,42.798775 92.668335,42.580486 92.747009,42.325424 
	C92.947601,41.736122 93.069519,41.401882 93.542038,40.985786 
	C96.765976,40.386562 99.631271,39.490772 102.514305,39.429508 
	C108.784256,39.296272 110.797699,37.441296 110.917900,30.692799 
	C110.320663,29.222826 109.823715,27.804836 108.845573,26.916954 
	C106.689339,24.959684 104.290451,23.269747 102.382698,21.777451 
	C106.160378,19.468756 109.570694,18.090439 112.034523,15.725893 
	C116.589684,11.354270 115.144806,6.084220 113.000000,1.000000 
z"/>
<path fill="#2A2B36" opacity="1.000000" stroke="none" 
	d="
M172.123535,67.937653 
	C176.648911,72.053581 177.791855,77.522881 177.970337,83.244720 
	C178.125336,88.214622 177.363419,93.347580 182.745163,96.448456 
	C183.409714,96.831360 183.513840,98.186913 183.877686,99.091728 
	C186.340469,105.215996 188.810150,111.337509 191.261139,117.466484 
	C191.865173,118.976921 192.408325,120.511696 192.993332,122.825920 
	C193.004807,124.744370 193.002396,125.872185 193.000000,127.000000 
	C188.643097,127.000000 184.286194,127.000000 179.511505,126.652534 
	C179.024612,124.527008 178.955490,122.748940 178.906601,120.607002 
	C178.927170,119.514046 178.927490,118.784966 179.039398,117.721649 
	C180.210968,110.916061 176.610428,106.627907 172.022949,103.104866 
	C163.910706,96.874916 155.614883,90.881966 147.323639,84.889793 
	C146.335342,84.175537 144.896423,84.084808 143.666367,83.705063 
	C143.177567,83.845139 142.688782,83.985222 142.199982,84.125305 
	C147.612778,90.974556 143.931488,95.125008 139.226608,99.110489 
	C138.136612,100.033829 137.602692,101.593124 136.735779,102.804604 
	C134.935760,105.320030 135.139191,107.402924 137.826721,109.304810 
	C137.424408,110.399132 137.132584,111.194366 136.656494,112.292145 
	C133.571609,117.150169 133.982971,122.044136 135.000000,127.000000 
	C106.312439,127.000000 77.624878,127.000000 48.737274,126.757324 
	C50.086216,126.008980 51.605812,125.221985 53.190327,125.056442 
	C56.450329,124.715889 57.937580,123.026085 58.113995,119.539436 
	C58.154106,115.845993 58.834816,112.200493 57.790321,109.144684 
	C54.842266,100.519783 51.231392,92.118515 47.797302,83.663414 
	C43.703182,73.583244 44.812599,63.013664 45.199387,52.615688 
	C45.333237,49.017330 47.767654,45.504547 49.372055,41.720490 
	C50.051197,40.300747 50.509533,39.113197 50.976555,37.958538 
	C50.985237,37.991432 50.918270,38.003460 51.199295,37.813499 
	C52.307419,36.056271 53.134518,34.489002 53.968235,32.952248 
	C53.974857,32.982758 53.912598,32.977978 54.204956,32.811764 
	C55.320415,31.362324 56.143520,30.079100 57.004707,28.541595 
	C57.280884,27.842005 57.518978,27.396694 58.131859,26.953314 
	C60.006390,26.304861 61.506126,25.654474 63.277550,24.935341 
	C64.192284,24.354307 64.835335,23.842020 65.478386,23.329733 
	C65.358223,23.015800 65.238052,22.701868 65.117889,22.387936 
	C63.053757,22.611301 60.989624,22.834667 58.954708,23.051561 
	C58.983921,23.045090 58.951302,23.095263 58.911404,22.733629 
	C58.907898,19.583267 58.944286,16.794537 58.821735,13.712915 
	C57.589222,12.434076 56.490208,11.474133 55.448956,10.455157 
	C54.319389,9.349754 53.243610,8.189390 52.144371,7.052995 
	C53.472000,6.006537 54.799629,4.960078 56.438828,4.084136 
	C59.196690,5.161964 61.587387,6.285054 64.100601,6.932642 
	C69.709335,8.377859 75.379204,9.585761 81.227509,11.113968 
	C82.948677,11.266363 84.466507,11.195139 86.321182,11.099222 
	C87.107819,11.089184 87.557610,11.103838 88.181244,11.396551 
	C92.817360,15.815102 97.193298,20.054337 101.773598,24.059881 
	C104.622429,26.551224 107.780579,28.688864 110.799904,30.985250 
	C110.797699,37.441296 108.784256,39.296272 102.514305,39.429508 
	C99.631271,39.490772 96.765976,40.386562 93.141830,40.945202 
	C84.553246,40.164413 80.564850,43.203938 77.857857,52.273827 
	C77.022575,54.481697 76.323921,56.373726 75.625259,58.265751 
	C76.047188,58.553535 76.469116,58.841320 76.891045,59.129105 
	C78.279449,57.757019 79.667847,56.384937 81.316666,54.808960 
	C89.457329,47.600147 97.458199,40.943611 109.195427,44.911472 
	C109.492172,45.011791 109.851593,44.926750 110.181778,44.928158 
	C116.606392,47.392906 123.030998,49.857655 129.882355,52.883575 
	C131.553528,56.811867 134.320938,56.940319 137.290146,56.823532 
	C145.551498,56.498589 153.815460,56.240231 162.078400,55.955574 
	C162.078400,55.955574 162.020477,55.947575 162.022522,56.217987 
	C162.017776,56.682758 162.011002,56.877113 162.131409,57.395309 
	C164.382217,62.249699 166.111435,67.161026 172.123535,67.937653 
M68.982635,123.017944 
	C68.982635,123.017944 68.980949,122.906754 69.531487,123.411667 
	C73.400940,123.568916 77.270401,123.726166 81.966408,123.916817 
	C83.622108,123.930214 85.277802,123.943619 87.722069,124.222862 
	C91.166298,124.465172 94.618958,124.988670 98.052849,124.885811 
	C103.606682,124.719437 104.740692,122.386116 102.047447,116.393944 
	C101.400352,111.286560 98.394844,109.658348 93.740532,111.144707 
	C87.253281,113.216393 81.803352,111.075562 76.577812,107.491302 
	C75.266663,106.591965 73.851929,105.843651 72.883705,105.264526 
	C71.451645,107.740356 70.206169,109.893600 68.724815,112.771133 
	C68.847816,116.186180 68.970818,119.601227 68.982635,123.017944 
M119.359383,104.891899 
	C118.188301,103.993225 117.017220,103.094559 115.884460,102.225296 
	C114.947899,106.170349 113.848366,110.092461 113.125267,114.082794 
	C112.592392,117.023491 116.097099,123.193039 118.104355,123.462234 
	C123.109840,124.133507 126.298363,122.038902 126.885193,117.693932 
	C127.639526,112.108864 124.128807,105.614548 119.359383,104.891899 
M66.239311,101.415459 
	C66.746284,100.250259 67.984772,98.670212 67.608154,98.006111 
	C66.820679,96.617561 65.181412,95.712067 63.892006,94.608162 
	C63.405090,95.025337 62.918179,95.442505 62.431263,95.859673 
	C63.539242,97.678970 64.647224,99.498260 66.239311,101.415459 
z"/>
<path fill="#000000" opacity="1.000000" stroke="none" 
	d="
M57.757069,26.951382 
	C57.518978,27.396694 57.280884,27.842005 56.737358,28.738449 
	C55.592152,30.452381 54.752377,31.715179 53.912598,32.977978 
	C53.912598,32.977978 53.974857,32.982758 53.711510,33.169033 
	C52.604862,34.904690 51.761566,36.454075 50.918270,38.003460 
	C50.918270,38.003460 50.985237,37.991432 50.720856,38.158913 
	C50.021400,39.535156 49.586323,40.743916 49.151245,41.952679 
	C47.767654,45.504547 45.333237,49.017330 45.199387,52.615688 
	C44.812599,63.013664 43.703182,73.583244 47.797302,83.663414 
	C51.231392,92.118515 54.842266,100.519783 57.790321,109.144684 
	C58.834816,112.200493 58.154106,115.845993 57.845905,119.812805 
	C55.678059,121.253716 53.948513,122.779083 52.168629,122.840271 
	C43.412102,123.141289 34.641769,123.122009 25.877308,123.064407 
	C23.010040,123.045555 21.407913,123.826157 22.000000,127.000000 
	C15.015985,127.000000 8.031971,127.000000 1.023978,127.000000 
	C1.023978,85.111908 1.023978,43.223801 1.023978,1.000000 
	C15.685856,1.000000 30.374269,1.000000 45.546692,1.383557 
	C46.163994,7.751225 51.341164,10.110701 54.336956,13.827730 
	C50.576084,14.005957 49.826038,15.863618 51.990231,18.140949 
	C53.915993,20.167383 56.601250,21.472044 58.951302,23.095263 
	C58.951302,23.095263 58.983921,23.045090 59.160789,23.264383 
	C60.181492,23.963499 61.025326,24.443321 61.543797,25.000179 
	C60.064648,25.701939 58.910858,26.326660 57.757069,26.951382 
z"/>
<path fill="#000000" opacity="1.000000" stroke="none" 
	d="
M81.024170,10.890349 
	C75.379204,9.585761 69.709335,8.377859 64.100601,6.932642 
	C61.587387,6.285054 59.196690,5.161964 56.233421,3.850531 
	C55.144299,2.630940 54.572151,1.815470 54.000000,1.000000 
	C72.020897,1.000000 90.041786,1.000000 108.518112,1.430874 
	C108.838310,9.966855 108.241447,11.112832 101.128525,12.616913 
	C98.697487,13.130973 95.937988,12.085140 93.327583,11.759865 
	C91.555077,11.538999 89.780861,11.331802 88.007408,11.118492 
	C87.557610,11.103838 87.107819,11.089184 85.909035,11.061390 
	C83.781425,10.995617 82.402794,10.942984 81.024170,10.890349 
z"/>
<path fill="#2E2B34" opacity="1.000000" stroke="none" 
	d="
M88.181244,11.396551 
	C89.780861,11.331802 91.555077,11.538999 93.327583,11.759865 
	C95.937988,12.085140 98.697487,13.130973 101.128525,12.616913 
	C108.241447,11.112832 108.838310,9.966855 108.986771,1.430874 
	C110.066673,1.000000 111.133339,1.000000 112.600006,1.000000 
	C115.144806,6.084220 116.589684,11.354270 112.034523,15.725893 
	C109.570694,18.090439 106.160378,19.468756 102.382698,21.777451 
	C104.290451,23.269747 106.689339,24.959684 108.845573,26.916954 
	C109.823715,27.804836 110.320663,29.222826 110.917900,30.692799 
	C107.780579,28.688864 104.622429,26.551224 101.773598,24.059881 
	C97.193298,20.054337 92.817360,15.815102 88.181244,11.396551 
z"/>
<path fill="#2D2B31" opacity="1.000000" stroke="none" 
	d="
M135.468658,127.000000 
	C133.982971,122.044136 133.571609,117.150169 136.712677,112.706863 
	C137.290665,115.891762 137.628204,118.964508 138.043884,122.141457 
	C138.260696,122.474274 138.340118,122.721588 138.542603,122.991959 
	C138.724915,122.996307 139.080109,123.079208 139.463577,123.211411 
	C150.907288,123.560966 161.967514,123.778313 173.342346,123.862831 
	C175.400085,122.810295 177.143219,121.890579 178.886353,120.970871 
	C178.955490,122.748940 179.024612,124.527008 179.046875,126.652534 
	C164.645767,127.000000 150.291550,127.000000 135.468658,127.000000 
z"/>
<path fill="#3B3637" opacity="1.000000" stroke="none" 
	d="
M22.468653,127.000000 
	C21.407913,123.826157 23.010040,123.045555 25.877308,123.064407 
	C34.641769,123.122009 43.412102,123.141289 52.168629,122.840271 
	C53.948513,122.779083 55.678059,121.253716 57.698902,120.129959 
	C57.937580,123.026085 56.450329,124.715889 53.190327,125.056442 
	C51.605812,125.221985 50.086216,126.008980 48.268616,126.757324 
	C39.645767,127.000000 31.291536,127.000000 22.468653,127.000000 
z"/>
<path fill="#3E3B3C" opacity="1.000000" stroke="none" 
	d="
M193.468628,127.000000 
	C193.002396,125.872185 193.004807,124.744370 193.023163,123.193619 
	C199.153397,122.848083 205.267502,122.953041 211.382004,122.988754 
	C213.690231,123.002235 215.815430,123.102921 215.867584,126.620499 
	C208.645752,127.000000 201.291504,127.000000 193.468628,127.000000 
z"/>
<path fill="#292830" opacity="1.000000" stroke="none" 
	d="
M53.555836,1.000000 
	C54.572151,1.815470 55.144299,2.630940 55.921852,3.680015 
	C54.799629,4.960078 53.472000,6.006537 52.144371,7.052995 
	C53.243610,8.189390 54.319389,9.349754 55.448956,10.455157 
	C56.490208,11.474133 57.589222,12.434076 58.391701,13.697508 
	C56.971870,13.915087 55.823128,13.855182 54.674385,13.795278 
	C51.341164,10.110701 46.163994,7.751225 46.015350,1.383557 
	C48.370556,1.000000 50.741116,1.000000 53.555836,1.000000 
z"/>
<path fill="#2E2E34" opacity="1.000000" stroke="none" 
	d="
M154.213974,24.943424 
	C154.213974,24.943426 154.671814,25.022717 155.081879,25.225410 
	C155.745575,25.610191 155.991577,25.802044 156.229965,26.003664 
	C156.229965,26.003664 156.641830,26.037626 157.067383,26.334999 
	C161.062469,27.069391 164.631989,27.506414 168.201508,27.943436 
	C168.201508,27.943436 168.661942,28.014688 169.079819,28.217220 
	C169.760361,28.606298 170.014984,28.803217 170.261597,29.010511 
	C170.518524,29.111162 170.724319,29.275757 170.861801,29.918978 
	C171.237793,31.843777 171.630966,33.353893 172.024139,34.864010 
	C166.314209,34.859962 160.592667,35.037521 154.905685,34.674191 
	C153.951050,34.613201 153.145996,32.210777 152.152847,30.191086 
	C152.760574,27.975765 153.487274,26.459595 154.213974,24.943424 
z"/>
<path fill="#2F2A32" opacity="1.000000" stroke="none" 
	d="
M77.994484,51.957977 
	C80.564850,43.203938 84.553246,40.164413 92.791237,41.027061 
	C93.069519,41.401882 92.947601,41.736122 92.538811,42.415535 
	C91.658981,43.060120 91.066017,43.359528 90.473061,43.658936 
	C90.587357,43.867901 90.701653,44.076866 90.815948,44.285831 
	C91.547394,43.862465 92.278847,43.439102 93.010292,43.015736 
	C98.704109,41.881493 104.427689,40.372379 109.949074,44.635017 
	C109.851593,44.926750 109.492172,45.011791 109.195427,44.911472 
	C97.458199,40.943611 89.457329,47.600147 81.343246,54.513508 
	C81.391335,51.931602 81.186798,50.056236 77.994484,51.957977 
z"/>
<path fill="#322E31" opacity="1.000000" stroke="none" 
	d="
M195.126968,34.969063 
	C204.978485,37.241020 210.336609,45.905773 206.036591,53.686623 
	C204.575699,53.493053 203.720154,53.203083 202.864624,52.913109 
	C204.139069,45.874939 203.268402,43.304802 196.677124,40.146549 
	C191.961945,37.887257 186.694519,36.780476 181.566422,34.773960 
	C186.015213,34.581993 190.571091,34.775528 195.126968,34.969063 
z"/>
<path fill="#2C2729" opacity="1.000000" stroke="none" 
	d="
M202.893829,52.942680 
	C203.720154,53.203083 204.575699,53.493053 205.737701,53.925507 
	C203.230301,59.560535 198.221115,61.731934 192.583679,62.907066 
	C190.984253,63.240467 189.348068,63.397461 187.353516,63.436684 
	C186.978912,62.818188 186.979553,62.398365 186.990509,61.656303 
	C186.994095,60.904163 186.987366,60.474262 186.980637,60.044361 
	C187.406326,60.008034 187.832016,59.971710 188.810791,59.970619 
	C190.216553,59.703861 191.069229,59.401863 191.921906,59.099861 
	C191.921906,59.099857 192.331726,59.004219 192.921539,58.977127 
	C195.012192,58.277893 196.513062,57.605751 198.013916,56.933609 
	C198.013916,56.933609 198.024292,57.007591 198.172867,56.843655 
	C198.552246,56.436974 198.783035,56.194233 199.013824,55.951488 
	C199.013824,55.951485 198.988586,56.010406 199.306824,55.945599 
	C200.747406,54.895851 201.869720,53.910912 202.992050,52.925968 
	C202.992050,52.925968 202.923019,52.972252 202.893829,52.942680 
z"/>
<path fill="#28242B" opacity="1.000000" stroke="none" 
	d="
M172.044617,67.633911 
	C166.111435,67.161026 164.382217,62.249699 162.439896,57.372047 
	C163.032089,56.999138 163.442978,56.973335 163.853851,56.947533 
	C167.296204,57.974106 170.738556,59.000679 174.405487,60.315483 
	C173.083786,61.789520 171.537521,62.975334 169.991272,64.161148 
	C170.649414,65.217499 171.307556,66.273834 172.044617,67.633911 
z"/>
<path fill="#37313D" opacity="1.000000" stroke="none" 
	d="
M161.779083,55.717461 
	C153.815460,56.240231 145.551498,56.498589 137.290146,56.823532 
	C134.320938,56.940319 131.553528,56.811867 130.178619,53.095100 
	C134.796783,55.840218 139.920425,53.906822 144.930038,54.008816 
	C150.454300,54.121292 155.963821,54.958073 161.779083,55.717461 
z"/>
<path fill="#413B40" opacity="1.000000" stroke="none" 
	d="
M194.853638,34.711590 
	C190.571091,34.775528 186.015213,34.581993 181.212830,34.601753 
	C178.283569,34.850616 175.600784,34.886181 172.471069,34.892876 
	C171.630966,33.353893 171.237793,31.843777 170.948364,30.099281 
	C174.572769,30.569660 178.090530,31.289240 181.614807,31.975384 
	C185.933807,32.816246 190.258224,33.629135 194.853638,34.711590 
z"/>
<path fill="#332D34" opacity="1.000000" stroke="none" 
	d="
M170.459503,64.136131 
	C171.537521,62.975334 173.083786,61.789520 174.820404,60.348488 
	C177.087036,60.089008 179.163315,60.084751 181.956406,60.294571 
	C184.108887,60.998611 185.544540,61.488579 186.980194,61.978546 
	C186.979553,62.398365 186.978912,62.818188 186.976730,63.552757 
	C181.626038,63.948711 176.276886,64.029915 170.459503,64.136131 
z"/>
<path fill="#3D363C" opacity="1.000000" stroke="none" 
	d="
M167.901550,27.690342 
	C164.631989,27.506414 161.062469,27.069391 157.268860,26.380898 
	C160.563690,26.565367 164.082642,27.001307 167.901550,27.690342 
z"/>
<path fill="#3D363C" opacity="1.000000" stroke="none" 
	d="
M154.031265,24.665394 
	C153.487274,26.459595 152.760574,27.975765 151.986267,29.874723 
	C151.167923,27.898653 150.397186,25.539797 149.626450,23.180939 
	C150.151535,22.892056 150.676620,22.603170 151.201706,22.314285 
	C152.084000,23.005312 152.966278,23.696339 154.031265,24.665394 
z"/>
<path fill="#3D373B" opacity="1.000000" stroke="none" 
	d="
M186.990509,61.656303 
	C185.544540,61.488579 184.108887,60.998611 182.400452,60.336349 
	C183.475372,60.109768 184.823074,60.055481 186.575714,60.022778 
	C186.987366,60.474262 186.994095,60.904163 186.990509,61.656303 
z"/>
<path fill="#3D373B" opacity="1.000000" stroke="none" 
	d="
M197.650177,56.959229 
	C196.513062,57.605751 195.012192,58.277893 193.130737,58.954681 
	C194.262238,58.301170 195.774353,57.643013 197.650177,56.959229 
z"/>
<path fill="#3D373B" opacity="1.000000" stroke="none" 
	d="
M202.713699,53.085674 
	C201.869720,53.910912 200.747406,54.895851 199.280792,55.926903 
	C200.102798,55.063805 201.269073,54.154594 202.713699,53.085674 
z"/>
<path fill="#3D373B" opacity="1.000000" stroke="none" 
	d="
M191.601257,59.110565 
	C191.069229,59.401863 190.216553,59.703861 189.131287,59.962292 
	C189.692673,59.652905 190.486633,59.387089 191.601257,59.110565 
z"/>
<path fill="#37313D" opacity="1.000000" stroke="none" 
	d="
M163.708389,56.719780 
	C163.442978,56.973335 163.032089,56.999138 162.312714,57.048203 
	C162.011002,56.877113 162.017776,56.682758 162.042450,56.196587 
	C162.561188,56.100525 163.062057,56.296276 163.708389,56.719780 
z"/>
<path fill="#3D363C" opacity="1.000000" stroke="none" 
	d="
M170.096710,28.828726 
	C170.014984,28.803217 169.760361,28.606298 169.305283,28.275799 
	C169.437988,28.220596 169.710968,28.392296 170.096710,28.828726 
z"/>
<path fill="#3D363C" opacity="1.000000" stroke="none" 
	d="
M156.071228,25.826553 
	C155.991577,25.802044 155.745575,25.610191 155.305511,25.288414 
	C155.433273,25.236784 155.697754,25.403690 156.071228,25.826553 
z"/>
<path fill="#3D373B" opacity="1.000000" stroke="none" 
	d="
M198.778473,56.064358 
	C198.783035,56.194233 198.552246,56.436974 198.135880,56.848854 
	C198.147919,56.737736 198.345520,56.457478 198.778473,56.064358 
z"/>
<path fill="#000000" opacity="1.000000" stroke="none" 
	d="
M139.080109,123.079208 
	C139.080109,123.079208 138.724915,122.996307 138.436981,122.757111 
	C138.087936,122.357681 138.026840,122.197464 137.965744,122.037247 
	C137.628204,118.964508 137.290665,115.891762 136.896942,112.404312 
	C137.132584,111.194366 137.424408,110.399132 137.867676,108.915695 
	C138.179001,99.503197 145.903503,96.798431 151.057388,91.873619 
	C155.529541,94.992668 159.972107,98.207405 164.533188,101.244125 
	C170.932098,105.504456 176.994537,109.996704 178.927811,118.055885 
	C178.927490,118.784966 178.927170,119.514046 178.906601,120.606995 
	C177.143219,121.890579 175.400085,122.810295 173.034454,123.568436 
	C161.301346,123.297638 150.190720,123.188423 139.080109,123.079208 
z"/>
<path fill="#000000" opacity="1.000000" stroke="none" 
	d="
M86.933502,123.957031 
	C85.277802,123.943619 83.622108,123.930214 81.213120,123.647934 
	C76.633530,123.221619 72.807243,123.064186 68.980949,122.906754 
	C68.980949,122.906754 68.982635,123.017944 69.010406,122.555595 
	C69.012352,118.744446 68.986526,115.395653 68.960693,112.046852 
	C70.206169,109.893600 71.451645,107.740356 72.883705,105.264526 
	C73.851929,105.843651 75.266663,106.591965 76.577812,107.491302 
	C81.803352,111.075562 87.253281,113.216393 93.740532,111.144707 
	C98.394844,109.658348 101.400352,111.286560 102.079933,117.136192 
	C101.936447,119.456581 101.760475,121.034729 101.600304,122.471161 
	C96.363510,123.001686 91.648506,123.479355 86.933502,123.957031 
z"/>
<path fill="#000000" opacity="1.000000" stroke="none" 
	d="
M119.667252,104.901596 
	C124.128807,105.614548 127.639526,112.108864 126.885193,117.693932 
	C126.298363,122.038902 123.109840,124.133507 118.104355,123.462234 
	C116.097099,123.193039 112.592392,117.023491 113.125267,114.082794 
	C113.848366,110.092461 114.947899,106.170349 115.884460,102.225296 
	C117.017220,103.094559 118.188301,103.993225 119.667252,104.901596 
z"/>
<path fill="#2D2B31" opacity="1.000000" stroke="none" 
	d="
M179.039398,117.721649 
	C176.994537,109.996704 170.932098,105.504456 164.533188,101.244125 
	C159.972107,98.207405 155.529541,94.992668 151.057388,91.873619 
	C145.903503,96.798431 138.179001,99.503197 137.978180,108.616615 
	C135.139191,107.402924 134.935760,105.320030 136.735779,102.804604 
	C137.602692,101.593124 138.136612,100.033829 139.226608,99.110489 
	C143.931488,95.125008 147.612778,90.974556 142.199982,84.125305 
	C142.688782,83.985222 143.177567,83.845139 143.666367,83.705063 
	C144.896423,84.084808 146.335342,84.175537 147.323639,84.889793 
	C155.614883,90.881966 163.910706,96.874916 172.022949,103.104866 
	C176.610428,106.627907 180.210968,110.916061 179.039398,117.721649 
z"/>
<path fill="#302A34" opacity="1.000000" stroke="none" 
	d="
M54.336956,13.827730 
	C55.823128,13.855182 56.971870,13.915087 58.550644,13.990400 
	C58.944286,16.794537 58.907898,19.583267 58.911404,22.733629 
	C56.601250,21.472044 53.915993,20.167383 51.990231,18.140949 
	C49.826038,15.863618 50.576084,14.005957 54.336956,13.827730 
z"/>
<path fill="#3A373B" opacity="1.000000" stroke="none" 
	d="
M87.327789,124.089951 
	C91.648506,123.479355 96.363510,123.001686 101.600304,122.471161 
	C101.760475,121.034729 101.936447,119.456581 102.150070,117.496964 
	C104.740692,122.386116 103.606682,124.719437 98.052849,124.885811 
	C94.618958,124.988670 91.166298,124.465172 87.327789,124.089951 
z"/>
<path fill="#221B27" opacity="1.000000" stroke="none" 
	d="
M77.857857,52.273827 
	C81.186798,50.056236 81.391335,51.931602 81.082825,54.717403 
	C79.667847,56.384937 78.279449,57.757019 76.891045,59.129105 
	C76.469116,58.841320 76.047188,58.553535 75.625259,58.265751 
	C76.323921,56.373726 77.022575,54.481697 77.857857,52.273827 
z"/>
<path fill="#26222C" opacity="1.000000" stroke="none" 
	d="
M65.997253,101.366508 
	C64.647224,99.498260 63.539242,97.678970 62.431263,95.859673 
	C62.918179,95.442505 63.405090,95.025337 63.892006,94.608162 
	C65.181412,95.712067 66.820679,96.617561 67.608154,98.006111 
	C67.984772,98.670212 66.746284,100.250259 65.997253,101.366508 
z"/>
<path fill="#3A373B" opacity="1.000000" stroke="none" 
	d="
M69.256218,123.159210 
	C72.807243,123.064186 76.633530,123.221619 80.799835,123.631233 
	C77.270401,123.726166 73.400940,123.568916 69.256218,123.159210 
z"/>
<path fill="#302A34" opacity="1.000000" stroke="none" 
	d="
M61.869156,24.923141 
	C61.025326,24.443321 60.181492,23.963499 59.131577,23.270855 
	C60.989624,22.834667 63.053757,22.611301 65.117889,22.387936 
	C65.238052,22.701868 65.358223,23.015800 65.478386,23.329733 
	C64.835335,23.842020 64.192284,24.354307 62.993214,24.916901 
	C62.247852,24.952520 62.058506,24.937830 61.869156,24.923141 
z"/>
<path fill="#3A373B" opacity="1.000000" stroke="none" 
	d="
M68.842758,112.408997 
	C68.986526,115.395653 69.012352,118.744446 69.065994,122.554764 
	C68.970818,119.601227 68.847816,116.186180 68.842758,112.408997 
z"/>
<path fill="#2E2B34" opacity="1.000000" stroke="none" 
	d="
M81.227509,11.113969 
	C82.402794,10.942984 83.781425,10.995617 85.572197,11.086082 
	C84.466507,11.195139 82.948677,11.266363 81.227509,11.113969 
z"/>
<path fill="#3C3640" opacity="1.000000" stroke="none" 
	d="
M51.199295,37.813499 
	C51.761566,36.454075 52.604862,34.904690 53.704887,33.138519 
	C53.134518,34.489002 52.307419,36.056271 51.199295,37.813499 
z"/>
<path fill="#3C3640" opacity="1.000000" stroke="none" 
	d="
M61.543797,25.000179 
	C62.058506,24.937830 62.247852,24.952520 62.721535,24.985649 
	C61.506126,25.654474 60.006390,26.304861 58.131859,26.953312 
	C58.910858,26.326660 60.064648,25.701939 61.543797,25.000179 
z"/>
<path fill="#3C3640" opacity="1.000000" stroke="none" 
	d="
M54.204956,32.811764 
	C54.752377,31.715179 55.592152,30.452381 56.699276,28.992729 
	C56.143520,30.079100 55.320415,31.362324 54.204956,32.811764 
z"/>
<path fill="#3C3640" opacity="1.000000" stroke="none" 
	d="
M49.372055,41.720490 
	C49.586323,40.743916 50.021400,39.535156 50.712173,38.126019 
	C50.509533,39.113197 50.051197,40.300747 49.372055,41.720490 
z"/>
<path fill="#424242" opacity="1.000000" stroke="none" 
	d="
M139.463577,123.211411 
	C150.190720,123.188423 161.301346,123.297638 172.719849,123.701248 
	C161.967514,123.778313 150.907288,123.560966 139.463577,123.211411 
z"/>
<path fill="#424242" opacity="1.000000" stroke="none" 
	d="
M138.043884,122.141457 
	C138.026840,122.197464 138.087936,122.357681 138.254669,122.752754 
	C138.340118,122.721588 138.260696,122.474274 138.043884,122.141457 
z"/>
<path fill="#000000" opacity="1.000000" stroke="none" 
	d="
M92.924377,42.907257 
	C92.278847,43.439102 91.547394,43.862465 90.815948,44.285831 
	C90.701653,44.076866 90.587357,43.867901 90.473061,43.658936 
	C91.066017,43.359528 91.658981,43.060120 92.460136,42.670601 
	C92.668335,42.580486 92.838463,42.798775 92.924377,42.907257 
z"/>
</svg>